<svg id="visual" viewBox="0 0 900 600" width="900" height="600" xmlns="http://www.w3.org/2000/svg" xmlns:xlink="http://www.w3.org/1999/xlink" version="1.1"><path d="M0 61L13.7 62C27.3 63 54.7 65 82 65C109.3 65 136.7 63 163.8 64C191 65 218 69 245.2 67C272.3 65 299.7 57 327 61C354.3 65 381.7 81 409 84C436.3 87 463.7 77 491 70C518.3 63 545.7 59 573 62C600.3 65 627.7 75 654.8 72C682 69 709 53 736.2 56C763.3 59 790.7 81 818 81C845.3 81 872.7 59 886.3 48L900 37L900 0L886.3 0C872.7 0 845.3 0 818 0C790.7 0 763.3 0 736.2 0C709 0 682 0 654.8 0C627.7 0 600.3 0 573 0C545.7 0 518.3 0 491 0C463.7 0 436.3 0 409 0C381.7 0 354.3 0 327 0C299.7 0 272.3 0 245.2 0C218 0 191 0 163.8 0C136.7 0 109.3 0 82 0C54.7 0 27.3 0 13.7 0L0 0Z" fill="#6198ff"></path><path d="M0 265L13.7 267C27.3 269 54.7 273 82 275C109.3 277 136.7 277 163.8 258C191 239 218 201 245.2 191C272.3 181 299.7 199 327 223C354.3 247 381.7 277 409 293C436.3 309 463.7 311 491 315C518.3 319 545.7 325 573 326C600.3 327 627.7 323 654.8 316C682 309 709 299 736.2 299C763.3 299 790.7 309 818 286C845.3 263 872.7 207 886.3 179L900 151L900 35L886.3 46C872.7 57 845.3 79 818 79C790.7 79 763.3 57 736.2 54C709 51 682 67 654.8 70C627.7 73 600.3 63 573 60C545.7 57 518.3 61 491 68C463.7 75 436.3 85 409 82C381.7 79 354.3 63 327 59C299.7 55 272.3 63 245.2 65C218 67 191 63 163.8 62C136.7 61 109.3 63 82 63C54.7 63 27.3 61 13.7 60L0 59Z" fill="#3c80ff"></path><path d="M0 493L13.7 481C27.3 469 54.7 445 82 428C109.3 411 136.7 401 163.8 401C191 401 218 411 245.2 411C272.3 411 299.7 401 327 407C354.3 413 381.7 435 409 448C436.3 461 463.7 465 491 470C518.3 475 545.7 481 573 475C600.3 469 627.7 451 654.8 434C682 417 709 401 736.2 405C763.3 409 790.7 433 818 433C845.3 433 872.7 409 886.3 397L900 385L900 149L886.3 177C872.7 205 845.3 261 818 284C790.7 307 763.3 297 736.2 297C709 297 682 307 654.8 314C627.7 321 600.3 325 573 324C545.7 323 518.3 317 491 313C463.7 309 436.3 307 409 291C381.7 275 354.3 245 327 221C299.7 197 272.3 179 245.2 189C218 199 191 237 163.8 256C136.7 275 109.3 275 82 273C54.7 271 27.3 267 13.7 265L0 263Z" fill="#0066ff"></path><path d="M0 535L13.7 533C27.3 531 54.7 527 82 520C109.3 513 136.7 503 163.8 495C191 487 218 481 245.2 485C272.3 489 299.7 503 327 507C354.3 511 381.7 505 409 507C436.3 509 463.7 519 491 525C518.3 531 545.7 533 573 527C600.3 521 627.7 507 654.8 497C682 487 709 481 736.2 483C763.3 485 790.7 495 818 499C845.3 503 872.7 501 886.3 500L900 499L900 383L886.3 395C872.7 407 845.3 431 818 431C790.7 431 763.3 407 736.2 403C709 399 682 415 654.8 432C627.7 449 600.3 467 573 473C545.7 479 518.3 473 491 468C463.7 463 436.3 459 409 446C381.7 433 354.3 411 327 405C299.7 399 272.3 409 245.2 409C218 409 191 399 163.8 399C136.7 399 109.3 409 82 426C54.7 443 27.3 467 13.7 479L0 491Z" fill="#0059dd"></path><path d="M0 601L13.7 601C27.3 601 54.7 601 82 601C109.3 601 136.7 601 163.8 601C191 601 218 601 245.2 601C272.3 601 299.7 601 327 601C354.3 601 381.7 601 409 601C436.3 601 463.7 601 491 601C518.3 601 545.7 601 573 601C600.3 601 627.7 601 654.8 601C682 601 709 601 736.2 601C763.3 601 790.7 601 818 601C845.3 601 872.7 601 886.3 601L900 601L900 497L886.3 498C872.7 499 845.3 501 818 497C790.7 493 763.3 483 736.2 481C709 479 682 485 654.8 495C627.7 505 600.3 519 573 525C545.7 531 518.3 529 491 523C463.7 517 436.3 507 409 505C381.7 503 354.3 509 327 505C299.7 501 272.3 487 245.2 483C218 479 191 485 163.8 493C136.7 501 109.3 511 82 518C54.7 525 27.3 529 13.7 531L0 533Z" fill="#004cbb"></path></svg>